# xmcd
#
# Track frame offsets: 
#        150
#        937
#        21824
#        38201
#        60176
#        76826
#        96035
#        119322
#        137918
#        158093
#        183517
#        199867
#        229117
#        255667
#
# Disc length: 3415 seconds
#
# Revision: 0
# Processed by: cddbd v1.5.2PL0 Copyright (c) Steve Scherf et al.
# Submitted via: ExactAudioCopy v1.0b4
#
DISCID=a40d550e
DTITLE=Indijana and The Bandits - TakeThe Next Train
DYEAR=2015
DGENRE=Blues
TTITLE0=Intro
TTITLE1=Monkeyparade
TTITLE2=I'm in trouble
TTITLE3=Sugar Mama
TTITLE4=Gotta go
TTITLE5=Mercy
TTITLE6=Muddy Water Blues
TTITLE7=Something's got a hold on me
TTITLE8=Take the whole trip
TTITLE9=I like kissing
TTITLE10=I haven't said I love you (Marta's Song)
TTITLE11=I just wanna make love to you
TTITLE12=Stormy Monday
TTITLE13=Outro
EXTD=
EXTT0=
EXTT1=
EXTT2=
EXTT3=
EXTT4=
EXTT5=
EXTT6=
EXTT7=
EXTT8=
EXTT9=
EXTT10=
EXTT11=
EXTT12=
EXTT13=
PLAYORDER=
